<mxfile host="app.diagrams.net" modified="2024-05-09T18:54:29.015Z" agent="Mozilla/5.0 (Macintosh; Intel Mac OS X 10_15_7) AppleWebKit/605.1.15 (KHTML, like Gecko) Version/17.3.1 Safari/605.1.15" version="24.3.1" etag="HhLys42y4uOq2iSU1-lK" type="github">
  <diagram name="Page-1" id="2InIdZZOA754NLs4ePKU">
    <mxGraphModel>
      <root>
        <mxCell id="0" />
        <mxCell id="1" parent="0" />
      </root>
    </mxGraphModel>
  </diagram>
</mxfile>
